<svg width="31" height="22" viewBox="0 0 31 22" fill="none" xmlns="http://www.w3.org/2000/svg">
<path d="M29.7514 4.9375L16.3451 0.109375C16.017 0.015625 15.5951 0.015625 15.267 0.109375L1.86077 4.9375C1.20452 5.17188 0.829516 5.73438 0.829516 6.39062C0.829516 7.09375 1.20452 7.65625 1.86077 7.89062L3.07952 8.3125V13.6094L1.57952 20.125C1.53264 20.3594 1.57952 20.5938 1.72014 20.7344C1.86077 20.9219 2.09514 21.0156 2.32952 21.0156H5.32952C5.51702 21.0156 5.75139 20.9219 5.89202 20.7344C6.03264 20.5938 6.07952 20.3594 6.03264 20.125L4.57952 13.5156V8.875L15.267 12.7188C15.4545 12.7656 15.642 12.7656 15.7826 12.7656C15.9701 12.7656 16.1576 12.7656 16.3451 12.6719L29.7514 7.89062C30.4076 7.65625 30.8295 7.09375 30.8295 6.39062C30.8295 5.73438 30.4076 5.17188 29.7514 4.9375ZM3.26702 19.5156L3.82952 17.0781L4.39202 19.5156H3.26702ZM15.7826 11.2656L6.87639 8.07812L16.017 5.26562C16.4389 5.125 16.6264 4.70312 16.5326 4.32812C16.392 3.90625 15.9701 3.71875 15.5951 3.8125L4.53264 7.23438L2.32952 6.39062L15.8295 1.5625L29.3295 6.39062L15.7826 11.2656ZM23.4233 12.0625C23.0014 12.1094 22.7201 12.4844 22.767 12.9062L23.2826 16.9375C23.3764 17.3594 23.0951 17.7812 22.6264 18.0156C20.5639 18.9531 18.2201 19.4688 15.8764 19.5156H15.7358C13.392 19.4688 11.0483 18.9531 8.98577 18.0156C8.51702 17.7812 8.23577 17.3594 8.32952 16.9375L8.84514 12.9062C8.89202 12.4844 8.61077 12.1094 8.18889 12.0625C7.76702 11.9688 7.39202 12.2969 7.34514 12.6719L6.82952 16.75C6.68889 17.8281 7.29827 18.8594 8.37639 19.375C10.6264 20.4062 13.1576 20.9688 15.7358 21.0156H15.9233C18.4545 20.9688 20.9858 20.4062 23.2358 19.375C24.3139 18.8594 24.9233 17.8281 24.7826 16.75L24.267 12.6719C24.2201 12.2969 23.8451 11.9688 23.4233 12.0625Z" fill="#282828"/>
</svg>
